<svg xmlns="http://www.w3.org/2000/svg" width="100%" height="100%"  viewBox="0 0 1000 200">

<defs>
  </defs>
  <rect class="cls-1" width="9" height="100%"/>
  <rect id="Rectangle_1_copy" data-name="Rectangle 1 copy" class="cls-1" x="61" width="3" height="100%"/>
  <rect id="Rectangle_1_copy_2" data-name="Rectangle 1 copy 2" class="cls-1" x="116" width="3" height="100%"/>
  <rect id="Rectangle_1_copy_3" data-name="Rectangle 1 copy 3" class="cls-1" x="171" width="3" height="100%"/>
  <rect id="Rectangle_1_copy_4" data-name="Rectangle 1 copy 4" class="cls-1" x="226" width="3" height="100%"/>
  <rect id="Rectangle_1_copy_5" data-name="Rectangle 1 copy 5" class="cls-1" x="281" width="3" height="100%"/>
  <rect id="Rectangle_1_copy_6" data-name="Rectangle 1 copy 6" class="cls-1" x="336" width="3" height="100%"/>
  <rect id="Rectangle_1_copy_7" data-name="Rectangle 1 copy 7" class="cls-1" x="391" width="3" height="100%"/>
  <rect id="Rectangle_1_copy_8" data-name="Rectangle 1 copy 8" class="cls-1" x="446" width="3" height="100%"/>
  <rect id="Rectangle_1_copy_9" data-name="Rectangle 1 copy 9" class="cls-1" x="501" width="3" height="100%"/>
  <rect id="Rectangle_1_copy_10" data-name="Rectangle 1 copy 10" class="cls-1" x="556" width="3" height="100%"/>
  <rect id="Rectangle_1_copy_11" data-name="Rectangle 1 copy 11" class="cls-1" x="611" width="3" height="100%"/>
  <rect id="Rectangle_1_copy_12" data-name="Rectangle 1 copy 12" class="cls-1" x="666" width="3" height="100%"/>
  <rect id="Rectangle_1_copy_13" data-name="Rectangle 1 copy 13" class="cls-1" x="721" width="3" height="100%"/>
  <rect id="Rectangle_1_copy_14" data-name="Rectangle 1 copy 14" class="cls-1" x="776" width="3" height="100%"/>
  <rect id="Rectangle_1_copy_15" data-name="Rectangle 1 copy 15" class="cls-1" x="831" width="3" height="100%"/>
  <rect id="Rectangle_1_copy_16" data-name="Rectangle 1 copy 16" class="cls-1" x="886" width="3" height="100%"/>
  <rect id="Rectangle_1_copy_17" data-name="Rectangle 1 copy 17" class="cls-1" x="941" width="3" height="100%"/>
  <rect id="Rectangle_1_copy_18" data-name="Rectangle 1 copy 18" class="cls-1" x="995" width="5" height="100%"/>
  <rect class="cls-1" y="0" width="100%" height="3"/>
  <rect id="Rectangle_2_copy" data-name="Rectangle 2 copy" class="cls-1" y="39" width="100%" height="3"/>
  <rect id="Rectangle_2_copy_2" data-name="Rectangle 2 copy 2" class="cls-1" y="80" width="100%" height="3"/>
  <rect id="Rectangle_2_copy_3" data-name="Rectangle 2 copy 3" class="cls-1" y="118" width="100%" height="3"/>
  <rect id="Rectangle_2_copy_4" data-name="Rectangle 2 copy 4" class="cls-1" y="157" width="100%" height="3"/>
  <rect id="Rectangle_2_copy_5" data-name="Rectangle 2 copy 5" class="cls-1" y="197" width="100%" height="3"/>
  <circle class="cls-1" cx="145.5" cy="101.5" r="3.5"/>
  <circle id="Ellipse_1_copy" data-name="Ellipse 1 copy" class="cls-1" cx="640.5" cy="60.5" r="3.5"/>
  <circle id="Ellipse_1_copy_6" data-name="Ellipse 1 copy 6" class="cls-1" cx="640.5" cy="138.5" r="3.5"/>
  <circle id="Ellipse_1_copy_7" data-name="Ellipse 1 copy 7" class="cls-1" cx="805.5" cy="102.5" r="3.5"/>
  <circle id="Ellipse_1_copy_8" data-name="Ellipse 1 copy 8" class="cls-1" cx="915.5" cy="101.5" r="3.5"/>
  <circle id="Ellipse_1_copy_2" data-name="Ellipse 1 copy 2" class="cls-1" cx="365.5" cy="101.5" r="3.5"/>
  <circle id="Ellipse_1_copy_3" data-name="Ellipse 1 copy 3" class="cls-1" cx="475.5" cy="102.5" r="3.5"/>
  <circle id="Ellipse_1_copy_4" data-name="Ellipse 1 copy 4" class="cls-1" cx="365.5" cy="101.5" r="3.5"/>
  <circle id="Ellipse_1_copy_5" data-name="Ellipse 1 copy 5" class="cls-1" cx="475.5" cy="102.5" r="3.5"/>
</svg>
