<svg xmlns="http://www.w3.org/2000/svg" width="100%" height="100%"  viewBox="0 0 1000 200">

<defs>
  </defs>
  <rect width="9" height="100%"/>
  <rect id="Rectangle_1_copy" data-name="Rectangle 1 copy" x="61" width="3" height="100%"/>
  <rect id="Rectangle_1_copy_2" data-name="Rectangle 1 copy 2" x="116" width="3" height="100%"/>
  <rect id="Rectangle_1_copy_3" data-name="Rectangle 1 copy 3" x="171" width="3" height="100%"/>
  <rect id="Rectangle_1_copy_4" data-name="Rectangle 1 copy 4" x="226" width="3" height="100%"/>
  <rect id="Rectangle_1_copy_5" data-name="Rectangle 1 copy 5" x="281" width="3" height="100%"/>
  <rect id="Rectangle_1_copy_6" data-name="Rectangle 1 copy 6" x="336" width="3" height="100%"/>
  <rect id="Rectangle_1_copy_7" data-name="Rectangle 1 copy 7" x="391" width="3" height="100%"/>
  <rect id="Rectangle_1_copy_8" data-name="Rectangle 1 copy 8" x="446" width="3" height="100%"/>
  <rect id="Rectangle_1_copy_9" data-name="Rectangle 1 copy 9" x="501" width="3" height="100%"/>
  <rect id="Rectangle_1_copy_10" data-name="Rectangle 1 copy 10" x="556" width="3" height="100%"/>
  <rect id="Rectangle_1_copy_11" data-name="Rectangle 1 copy 11" x="611" width="3" height="100%"/>
  <rect id="Rectangle_1_copy_12" data-name="Rectangle 1 copy 12" x="666" width="3" height="100%"/>
  <rect id="Rectangle_1_copy_13" data-name="Rectangle 1 copy 13" x="721" width="3" height="100%"/>
  <rect id="Rectangle_1_copy_14" data-name="Rectangle 1 copy 14" x="776" width="3" height="100%"/>
  <rect id="Rectangle_1_copy_15" data-name="Rectangle 1 copy 15" x="831" width="3" height="100%"/>
  <rect id="Rectangle_1_copy_16" data-name="Rectangle 1 copy 16" x="886" width="3" height="100%"/>
  <rect id="Rectangle_1_copy_17" data-name="Rectangle 1 copy 17" x="941" width="3" height="100%"/>
  <rect id="Rectangle_1_copy_18" data-name="Rectangle 1 copy 18" x="995" width="5" height="100%"/>
  <rect y="0" width="100%" height="3"/>
  <rect id="Rectangle_2_copy" data-name="Rectangle 2 copy" y="39" width="100%" height="3"/>
  <rect id="Rectangle_2_copy_2" data-name="Rectangle 2 copy 2" y="80" width="100%" height="3"/>
  <rect id="Rectangle_2_copy_3" data-name="Rectangle 2 copy 3" y="118" width="100%" height="3"/>
  <rect id="Rectangle_2_copy_4" data-name="Rectangle 2 copy 4" y="157" width="100%" height="3"/>
  <rect id="Rectangle_2_copy_5" data-name="Rectangle 2 copy 5" y="197" width="100%" height="3"/>
  <circle cx="145.5" cy="101.5" r="3.5"/>
  <circle id="Ellipse_1_copy" data-name="Ellipse 1 copy" cx="640.5" cy="60.5" r="3.5"/>
  <circle id="Ellipse_1_copy_6" data-name="Ellipse 1 copy 6" cx="640.5" cy="138.5" r="3.5"/>
  <circle id="Ellipse_1_copy_7" data-name="Ellipse 1 copy 7" cx="805.5" cy="102.5" r="3.5"/>
  <circle id="Ellipse_1_copy_8" data-name="Ellipse 1 copy 8" cx="915.5" cy="101.5" r="3.5"/>
  <circle id="Ellipse_1_copy_2" data-name="Ellipse 1 copy 2" cx="365.5" cy="101.5" r="3.5"/>
  <circle id="Ellipse_1_copy_3" data-name="Ellipse 1 copy 3" cx="475.5" cy="102.5" r="3.5"/>
  <circle id="Ellipse_1_copy_4" data-name="Ellipse 1 copy 4" cx="365.5" cy="101.5" r="3.5"/>
  <circle id="Ellipse_1_copy_5" data-name="Ellipse 1 copy 5" cx="475.5" cy="102.5" r="3.5"/>
</svg>
